<svg width="113" height="131" viewBox="0 0 113 131" fill="none" xmlns="http://www.w3.org/2000/svg">
<path d="M111.936 41.9117C111.48 40.7428 110.772 39.7157 109.877 38.9251L67.0732 2.00373C66.1892 1.26641 65.1594 0.784414 64.0771 0.601308C62.9948 0.418203 61.8941 0.539752 60.8743 0.954977L11.2183 22.2338C10.1751 22.6964 9.2574 23.4484 8.54977 24.4206C7.86713 25.3971 7.4335 26.5659 7.29392 27.8056L0.46894 85.7707C0.310778 87.025 0.457386 88.3104 0.893363 89.492C1.32934 90.6735 2.03862 91.7076 2.94669 92.4856L45.75 129.407C46.5888 130.112 47.5618 130.585 48.588 130.786L48.9032 130.84C49.9354 130.958 50.9739 130.827 51.9489 130.456L101.605 109.177C102.657 108.73 103.577 107.972 104.269 106.981C104.961 105.991 105.399 104.804 105.536 103.546L112.361 45.5812C112.496 44.3432 112.35 43.0811 111.936 41.9117ZM62.4455 5.35798C62.7919 5.22227 63.1642 5.18373 63.5303 5.24566C63.8963 5.30759 64.2452 5.46814 64.5468 5.71349L106.33 41.7427L57.2063 63.0517L14.0283 26.1269L62.4455 5.35798ZM5.48004 88.717C5.18232 88.4543 4.9506 88.109 4.80857 87.7162C4.66654 87.3235 4.61928 86.8975 4.67163 86.4817L11.3512 29.7512L54.6273 66.7525L47.3613 124.823L5.48004 88.717ZM100.041 104.715L51.5709 125.475L58.83 67.4635L108.006 46.1635L101.334 102.835C101.288 103.252 101.144 103.646 100.917 103.976C100.69 104.306 100.387 104.561 100.041 104.715Z" fill="#78D5E9"/>
</svg>
