<svg width="137" height="149" viewBox="0 0 137 149" fill="none" xmlns="http://www.w3.org/2000/svg">
<mask id="path-1-inside-1_225_304" fill="white">
<path d="M100.088 1.93715C98.9215 1.22494 97.6337 0.875806 96.3433 0.921874L35.2468 3.94994C34.0017 4.03672 32.8021 4.49928 31.7564 5.2958C30.7108 6.09232 29.8519 7.19771 29.2576 8.51208L1.02316 73.5294C0.44031 74.9103 0.157108 76.4561 0.199662 78.0243C0.266484 79.5743 0.673764 81.0852 1.3792 82.3998L34.1084 144.139C34.8077 145.484 35.7879 146.586 36.9459 147.327C38.104 148.069 39.3973 148.424 40.6899 148.355L101.786 145.327C102.971 145.25 104.117 144.829 105.127 144.101L105.431 143.869C106.391 143.055 107.19 141.996 107.776 140.765L136.01 75.7473C136.611 74.374 136.893 72.8197 136.824 71.2479C136.756 69.6761 136.34 68.1446 135.621 66.8143L102.892 5.07547C102.183 3.76663 101.219 2.68722 100.088 1.93715ZM33.5275 11.3247C33.733 10.8833 34.0251 10.5119 34.3788 10.2425C34.7325 9.97312 35.1371 9.81378 35.5577 9.77823L95.19 6.81069L67.4299 71.3788L6.01134 74.7401L33.5275 11.3247ZM40.3458 142.464C39.917 142.479 39.4894 142.356 39.107 142.107C38.7245 141.858 38.4008 141.492 38.1689 141.046L6.13677 80.6218L67.69 77.2458L100.113 139.482L40.3458 142.464ZM131.707 72.8721L104.14 136.326L71.7505 74.1528L99.5613 9.546L131.56 69.9073C131.799 70.3483 131.938 70.8551 131.964 71.376C131.989 71.8969 131.901 72.4132 131.707 72.8721Z"/>
</mask>
<path d="M100.088 1.93715C98.9215 1.22494 97.6337 0.875806 96.3433 0.921874L35.2468 3.94994C34.0017 4.03672 32.8021 4.49928 31.7564 5.2958C30.7108 6.09232 29.8519 7.19771 29.2576 8.51208L1.02316 73.5294C0.44031 74.9103 0.157108 76.4561 0.199662 78.0243C0.266484 79.5743 0.673764 81.0852 1.3792 82.3998L34.1084 144.139C34.8077 145.484 35.7879 146.586 36.9459 147.327C38.104 148.069 39.3973 148.424 40.6899 148.355L101.786 145.327C102.971 145.25 104.117 144.829 105.127 144.101L105.431 143.869C106.391 143.055 107.19 141.996 107.776 140.765L136.01 75.7473C136.611 74.374 136.893 72.8197 136.824 71.2479C136.756 69.6761 136.34 68.1446 135.621 66.8143L102.892 5.07547C102.183 3.76663 101.219 2.68722 100.088 1.93715ZM33.5275 11.3247C33.733 10.8833 34.0251 10.5119 34.3788 10.2425C34.7325 9.97312 35.1371 9.81378 35.5577 9.77823L95.19 6.81069L67.4299 71.3788L6.01134 74.7401L33.5275 11.3247ZM40.3458 142.464C39.917 142.479 39.4894 142.356 39.107 142.107C38.7245 141.858 38.4008 141.492 38.1689 141.046L6.13677 80.6218L67.69 77.2458L100.113 139.482L40.3458 142.464ZM131.707 72.8721L104.14 136.326L71.7505 74.1528L99.5613 9.546L131.56 69.9073C131.799 70.3483 131.938 70.8551 131.964 71.376C131.989 71.8969 131.901 72.4132 131.707 72.8721Z" fill="#4FD4F1"/>
<path d="M100.088 1.93715L598.734 -937.439L586.009 -945.877L573.024 -953.806L100.088 1.93715ZM96.3433 0.921874L131.672 -1069.93L126.155 -1069.73L120.636 -1069.46L96.3433 0.921874ZM35.2468 3.94994L59.5393 -1066.43L51.5168 -1066.03L43.4918 -1065.47L35.2468 3.94994ZM31.7564 5.2958L500.135 888.823L31.7564 5.2958ZM29.2576 8.51208L-781.94 -436.719L-785.771 -428.248L-789.478 -419.711L29.2576 8.51208ZM1.02316 73.5294L-817.713 -354.693L-820.263 -348.82L-822.755 -342.917L1.02316 73.5294ZM0.199662 78.0243L-922.494 185.365L-922.229 195.152L-921.808 204.919L0.199662 78.0243ZM1.3792 82.3998L796.88 -523.552L795.688 -525.801L794.486 -528.042L1.3792 82.3998ZM34.1084 144.139L833.44 -454.516L831.538 -458.175L829.61 -461.813L34.1084 144.139ZM40.6899 148.355L64.9824 -922.022L63.3653 -921.942L61.748 -921.855L40.6899 148.355ZM101.786 145.327L77.4939 1215.7L83.6974 1215.4L89.9026 1214.99L101.786 145.327ZM105.127 144.101L552.308 1043.34L562.987 1035.64L573.506 1027.63L105.127 144.101ZM105.431 143.869L573.81 1027.4L595.247 1011.07L615.972 993.481L105.431 143.869ZM107.776 140.765L909.008 607.485L918.076 588.411L926.511 568.987L107.776 140.765ZM136.01 75.7473L-681.226 -355.914L-681.978 -354.196L-682.726 -352.475L136.01 75.7473ZM135.621 66.8143L-659.88 672.766L-657.952 676.405L-655.996 680.022L135.621 66.8143ZM102.892 5.07547L898.393 -600.877L896.371 -604.69L894.32 -608.48L102.892 5.07547ZM33.5275 11.3247L-771.967 -446.336L-778.851 -431.549L-785.357 -416.555L33.5275 11.3247ZM34.3788 10.2425L502.758 893.77L34.3788 10.2425ZM35.5577 9.77823L59.6893 -1060.59L45.8433 -1059.9L31.9927 -1058.73L35.5577 9.77823ZM95.19 6.81069L915.725 430.87L1589.69 -1136.73L119.321 -1063.56L95.19 6.81069ZM67.4299 71.3788L47.2529 1141.54L623.747 1109.99L887.965 495.438L67.4299 71.3788ZM6.01134 74.7401L-812.873 -353.14L-1498.12 1226.12L-14.1656 1144.9L6.01134 74.7401ZM40.3458 142.464L5.22995 1213.3L10.7744 1213.1L16.3211 1212.83L40.3458 142.464ZM38.1689 141.046L837.419 -457.766L835.558 -461.346L833.67 -464.906L38.1689 141.046ZM6.13677 80.6218L26.2187 -989.535L-1629.76 -898.709L-789.364 686.574L6.13677 80.6218ZM67.69 77.2458L866.581 -522.256L606.562 -1021.37L87.772 -992.912L67.69 77.2458ZM100.113 139.482L76.088 1209.85L1726.05 1127.52L899.004 -460.02L100.113 139.482ZM131.707 72.8721L950.368 501.266L952.908 495.421L955.389 489.545L131.707 72.8721ZM104.14 136.326L-694.754 735.822L146.732 2351.09L922.801 564.72L104.14 136.326ZM71.7505 74.1528L-748.565 -350.416L-980.248 187.802L-727.144 673.648L71.7505 74.1528ZM99.5613 9.546L895.063 -596.406L46.4236 -2197.24L-720.754 -415.023L99.5613 9.546ZM131.56 69.9073L-663.941 675.859L-662.054 679.42L-660.14 682.96L131.56 69.9073ZM573.024 -953.806C446.232 -1031.23 295.431 -1075.77 131.672 -1069.93L61.0149 1071.77C-100.164 1077.52 -248.389 1033.68 -372.848 957.68L573.024 -953.806ZM120.636 -1069.46L59.5393 -1066.43L10.9543 1074.33L72.0508 1071.3L120.636 -1069.46ZM43.4918 -1065.47C-120.671 -1054.03 -287.316 -991.962 -436.623 -878.232L500.135 888.823C352.92 1000.96 188.674 1062.1 27.0018 1073.37L43.4918 -1065.47ZM-436.623 -878.232C-585.93 -764.501 -703.58 -610.012 -781.94 -436.719L840.455 453.743C763.283 624.408 647.351 776.686 500.135 888.823L-436.623 -878.232ZM-789.478 -419.711L-817.713 -354.693L819.759 501.752L847.993 436.735L-789.478 -419.711ZM-822.755 -342.917C-896.719 -167.682 -927.12 14.8885 -922.494 185.365L922.894 -29.3166C927.435 138.024 897.6 317.503 824.801 489.975L-822.755 -342.917ZM-921.808 204.919C-914.06 384.638 -867.596 551.449 -791.728 692.841L794.486 -528.042C868.943 -389.279 914.593 -225.49 922.207 -48.8702L-921.808 204.919ZM-794.122 688.352L-761.393 750.091L829.61 -461.813L796.88 -523.552L-794.122 688.352ZM-765.223 742.794C-690.649 886.269 -584.007 1008.47 -450.883 1093.75L524.775 -799.099C655.583 -715.301 760.264 -595.301 833.44 -454.516L-765.223 742.794ZM-450.883 1093.75C-317.43 1179.25 -156.112 1227.99 19.6318 1218.57L61.748 -921.855C234.906 -931.14 393.638 -883.109 524.775 -799.099L-450.883 1093.75ZM16.3974 1218.73L77.4939 1215.7L126.079 -925.05L64.9824 -922.022L16.3974 1218.73ZM89.9026 1214.99C247.116 1204.75 407.089 1148.06 552.308 1043.34L-342.055 -755.14C-198.856 -858.403 -41.1734 -914.253 113.67 -924.339L89.9026 1214.99ZM573.506 1027.63L573.81 1027.4L-362.948 -739.659L-363.252 -739.427L573.506 1027.63ZM615.972 993.481C739.612 888.564 838.792 755.166 909.008 607.485L-693.457 -325.955C-624.412 -471.173 -526.831 -602.454 -405.11 -705.743L615.972 993.481ZM926.511 568.987L954.746 503.97L-682.726 -352.475L-710.96 -287.458L926.511 568.987ZM953.246 507.409C1035 320.693 1066.7 124.926 1058.81 -56.2125L-785.159 198.708C-792.915 20.7136 -761.777 -171.945 -681.226 -355.914L953.246 507.409ZM1058.81 -56.2125C1050.93 -236.896 1003.93 -404.526 927.238 -546.394L-655.996 680.022C-731.25 540.815 -777.423 376.248 -785.159 198.708L1058.81 -56.2125ZM931.122 -539.138L898.393 -600.877L-692.61 611.027L-659.88 672.766L931.122 -539.138ZM894.32 -608.48C822.289 -741.6 722.226 -855.554 598.734 -937.439L-398.558 941.314C-519.788 860.928 -617.923 749.133 -688.537 618.631L894.32 -608.48ZM839.022 468.986C761.438 635.633 646.943 783.941 502.758 893.77L-434 -873.285C-578.893 -762.917 -693.972 -613.866 -771.967 -446.336L839.022 468.986ZM502.758 893.77C358.573 1003.6 197.935 1064.87 39.1228 1078.29L31.9927 -1058.73C-127.661 -1045.24 -289.108 -983.653 -434 -873.285L502.758 893.77ZM11.4262 1080.15L71.0584 1077.18L119.321 -1063.56L59.6893 -1060.59L11.4262 1080.15ZM-725.345 -417.249L-753.105 -352.68L887.965 495.438L915.725 430.87L-725.345 -417.249ZM87.6068 -998.784L26.1883 -995.422L-14.1656 1144.9L47.2529 1141.54L87.6068 -998.784ZM824.896 502.62L852.412 439.204L-785.357 -416.555L-812.873 -353.14L824.896 502.62ZM75.4617 -928.376C246.465 -934.526 402.862 -885.186 532.221 -800.906L-454.007 1085.12C-323.883 1169.9 -166.631 1219.49 5.22995 1213.3L75.4617 -928.376ZM532.221 -800.906C661.282 -716.82 764.756 -597.505 837.419 -457.766L-761.081 739.858C-687.954 880.488 -583.833 1000.54 -454.007 1085.12L532.221 -800.906ZM833.67 -464.906L801.638 -525.33L-789.364 686.574L-757.332 746.998L833.67 -464.906ZM-13.9452 1150.78L47.6081 1147.4L87.772 -992.912L26.2187 -989.535L-13.9452 1150.78ZM-731.201 676.748L-698.778 738.984L899.004 -460.02L866.581 -522.256L-731.201 676.748ZM124.138 -930.882L64.3706 -927.9L16.3211 1212.83L76.088 1209.85L124.138 -930.882ZM-686.954 -355.522L-714.521 -292.068L922.801 564.72L950.368 501.266L-686.954 -355.522ZM903.034 -463.169L870.645 -525.343L-727.144 673.648L-694.754 735.822L903.034 -463.169ZM892.066 498.722L919.877 434.115L-720.754 -415.023L-748.565 -350.416L892.066 498.722ZM-695.94 615.498L-663.941 675.859L927.062 -536.045L895.063 -596.406L-695.94 615.498ZM-660.14 682.96C-734.824 544.752 -780.99 381.785 -789.685 206.021L1053.61 -63.2693C1044.87 -240.075 998.421 -404.055 923.261 -543.145L-660.14 682.96ZM-789.685 206.021C-798.4 29.8548 -769.248 -160.828 -691.975 -343.801L955.389 489.545C1033.05 305.654 1062.38 113.939 1053.61 -63.2693L-789.685 206.021Z" fill="#3C3A93" fill-opacity="0.5" mask="url(#path-1-inside-1_225_304)"/>
</svg>
