<svg width="91" height="106" viewBox="0 0 91 106" fill="none" xmlns="http://www.w3.org/2000/svg">
<path d="M84.0429 20.0141C83.4781 19.2246 82.7426 18.6107 81.9042 18.2291L41.9922 0.65987C41.1724 0.316605 40.2855 0.20936 39.4117 0.34782C38.538 0.48628 37.7048 0.866086 36.9876 1.45292L2.2553 30.8506C1.5284 31.4803 0.95124 32.3021 0.57699 33.2404C0.222953 34.1757 0.0970361 35.1957 0.212326 36.1944L5.37108 82.9715C5.47458 83.9865 5.82043 84.9465 6.37231 85.7509C6.92419 86.5553 7.66176 87.1743 8.50755 87.5429L48.4195 105.112C49.1984 105.442 50.0396 105.557 50.8731 105.447L51.1275 105.407C51.9506 105.231 52.7336 104.86 53.4241 104.319L88.1564 74.9214C88.8932 74.302 89.4713 73.4745 89.8298 72.5259C90.1884 71.5772 90.3142 70.5424 90.1942 69.5301L85.0354 22.753C84.9168 21.7568 84.5755 20.8147 84.0429 20.0141ZM39.0027 4.46426C39.2473 4.26905 39.5296 4.14258 39.8251 4.09575C40.1206 4.04892 40.4206 4.08313 40.6991 4.19543L79.6577 21.3365L45.3443 50.6195L5.14063 33.1448L39.0027 4.46426ZM9.79536 83.9599C9.51669 83.8331 9.27436 83.6251 9.09316 83.3569C8.91196 83.0888 8.79837 82.7703 8.764 82.4339L3.71512 36.6531L44.0088 54.1618L48.844 101.135L9.79536 83.9599ZM86.1361 71.8626L52.2317 100.55L47.4017 53.6241L81.7576 24.3344L86.8012 70.0677C86.841 70.4033 86.8003 70.7463 86.6835 71.0616C86.5666 71.377 86.3777 71.6534 86.1361 71.8626Z" fill="#4FD4F1"/>
</svg>
