<svg width="1267" height="176" viewBox="0 0 1267 176" fill="none" xmlns="http://www.w3.org/2000/svg">
<path d="M100.448 147.693H102.448V145.693H100.448V147.693ZM100.448 174V176H102.448V174H100.448ZM0.0785007 174H-1.9215V176H0.0785007V174ZM0.0785007 2.64899V0.648987H-1.9215V2.64899H0.0785007ZM31.955 2.64899H33.955V0.648987H31.955V2.64899ZM31.955 147.693H29.955V149.693H31.955V147.693ZM98.448 147.693V174H102.448V147.693H98.448ZM100.448 172H0.0785007V176H100.448V172ZM2.0785 174V2.64899H-1.9215V174H2.0785ZM0.0785007 4.64899H31.955V0.648987H0.0785007V4.64899ZM29.955 2.64899V147.693H33.955V2.64899H29.955ZM31.955 149.693H100.448V145.693H31.955V149.693ZM155.202 28.008V26.008H153.202V28.008H155.202ZM155.202 75.5265H153.202V77.5265H155.202V75.5265ZM215.163 75.5265H217.163V73.5265H215.163V75.5265ZM215.163 100.056V102.056H217.163V100.056H215.163ZM155.202 100.056V98.056H153.202V100.056H155.202ZM155.202 148.523H153.202V150.523H155.202V148.523ZM231.279 148.523H233.279V146.523H231.279V148.523ZM231.279 174V176H233.279V174H231.279ZM123.207 174H121.207V176H123.207V174ZM123.207 2.64899V0.648987H121.207V2.64899H123.207ZM231.279 2.64899H233.279V0.648987H231.279V2.64899ZM231.279 28.008V30.008H233.279V28.008H231.279ZM153.202 28.008V75.5265H157.202V28.008H153.202ZM155.202 77.5265H215.163V73.5265H155.202V77.5265ZM213.163 75.5265V100.056H217.163V75.5265H213.163ZM215.163 98.056H155.202V102.056H215.163V98.056ZM153.202 100.056V148.523H157.202V100.056H153.202ZM155.202 150.523H231.279V146.523H155.202V150.523ZM229.279 148.523V174H233.279V148.523H229.279ZM231.279 172H123.207V176H231.279V172ZM125.207 174V2.64899H121.207V174H125.207ZM123.207 4.64899H231.279V0.648987H123.207V4.64899ZM229.279 2.64899V28.008H233.279V2.64899H229.279ZM231.279 26.008H155.202V30.008H231.279V26.008ZM379.214 28.8375V30.8375H381.214V28.8375H379.214ZM327.548 28.8375V26.8375H325.548V28.8375H327.548ZM327.548 174V176H329.548V174H327.548ZM295.671 174H293.671V176H295.671V174ZM295.671 28.8375H297.671V26.8375H295.671V28.8375ZM244.005 28.8375H242.005V30.8375H244.005V28.8375ZM244.005 2.64899V0.648987H242.005V2.64899H244.005ZM379.214 2.64899H381.214V0.648987H379.214V2.64899ZM379.214 26.8375H327.548V30.8375H379.214V26.8375ZM325.548 28.8375V174H329.548V28.8375H325.548ZM327.548 172H295.671V176H327.548V172ZM297.671 174V28.8375H293.671V174H297.671ZM295.671 26.8375H244.005V30.8375H295.671V26.8375ZM246.005 28.8375V2.64899H242.005V28.8375H246.005ZM244.005 4.64899H379.214V0.648987H244.005V4.64899ZM377.214 2.64899V28.8375H381.214V2.64899H377.214ZM492.418 33.8145L494.155 34.8068L494.171 34.7775L494.187 34.7477L492.418 33.8145ZM489.337 37.488L490.476 39.1324L490.488 39.124L490.5 39.1155L489.337 37.488ZM479.976 36.777L478.866 38.4411L478.906 38.4675L478.947 38.492L479.976 36.777ZM473.103 32.6295L474.078 30.8836L473.103 32.6295ZM463.623 28.6005L462.953 30.4849L462.978 30.4938L463.003 30.5019L463.623 28.6005ZM439.33 28.3635L439.922 30.2741L439.942 30.2677L439.963 30.2609L439.33 28.3635ZM430.917 32.748L429.642 31.2072L429.628 31.2182L429.615 31.2295L430.917 32.748ZM425.94 39.621L427.781 40.4021L427.785 40.3923L427.789 40.3825L425.94 39.621ZM427.599 58.344L426.055 59.6154L426.066 59.6287L426.077 59.6419L427.599 58.344ZM436.605 65.217L435.695 66.9982L436.605 65.217ZM449.284 70.3125L448.68 72.2192L449.284 70.3125ZM463.86 75.171L463.2 77.0592L463.214 77.0639L463.227 77.0684L463.86 75.171ZM478.435 81.096L477.565 82.8967L477.577 82.9026L477.589 82.9084L478.435 81.096ZM491.115 89.628L489.748 91.088L489.756 91.0959L489.765 91.1036L491.115 89.628ZM500.002 102.189L498.175 103.001L498.18 103.013L498.185 103.025L500.002 102.189ZM499.41 142.124L497.55 141.388L497.545 141.4L499.41 142.124ZM487.797 159.78L489.2 161.205L489.2 161.205L487.797 159.78ZM469.192 171.63L469.914 173.495L469.923 173.492L469.932 173.488L469.192 171.63ZM427.836 174.237L428.245 172.279L428.231 172.276L428.217 172.274L427.836 174.237ZM412.549 169.734L411.791 171.585L411.801 171.589L412.549 169.734ZM398.922 162.624L397.834 164.302L398.922 162.624ZM387.546 153.381L385.84 152.337L385.027 153.664L386.115 154.778L387.546 153.381ZM396.907 138.094L395.28 136.932L395.239 136.99L395.202 137.05L396.907 138.094ZM399.988 135.369L400.969 137.112L401.009 137.089L401.048 137.065L399.988 135.369ZM410.416 136.673L409.243 138.292L409.262 138.306L409.281 138.319L410.416 136.673ZM418.593 142.005L419.653 140.309L418.593 142.005ZM429.613 147.456L428.876 149.315L428.897 149.324L428.919 149.331L429.613 147.456ZM465.993 143.427L467.294 144.946L467.301 144.94L467.308 144.934L465.993 143.427ZM470.022 113.802L468.443 115.03L468.454 115.043L468.464 115.057L470.022 113.802ZM461.134 106.692L460.195 108.458L460.21 108.466L460.225 108.473L461.134 106.692ZM448.455 101.715L447.91 103.639L448.455 101.715ZM433.998 97.3305L433.384 99.2339L433.998 97.3305ZM406.861 82.992L405.478 84.4366L406.861 82.992ZM397.855 69.72L396.006 70.4815L396.013 70.498L396.02 70.5144L397.855 69.72ZM398.211 31.6815L396.371 30.8966L396.367 30.907L396.362 30.9175L398.211 31.6815ZM409.113 15.921L407.723 14.483L409.113 15.921ZM478.554 5.493L477.859 7.36849L478.554 5.493ZM500.358 18.765L502.127 19.6982L502.835 18.3564L501.733 17.3131L500.358 18.765ZM490.682 32.8222C489.823 34.3255 488.971 35.292 488.175 35.8605L490.5 39.1155C491.916 38.104 493.118 36.6215 494.155 34.8068L490.682 32.8222ZM488.199 35.8436C487.585 36.2684 486.708 36.5545 485.427 36.5545V40.5545C487.306 40.5545 489.035 40.1296 490.476 39.1324L488.199 35.8436ZM485.427 36.5545C484.245 36.5545 482.784 36.1298 481.005 35.062L478.947 38.492C481.117 39.7942 483.291 40.5545 485.427 40.5545V36.5545ZM481.085 35.1129C479.134 33.8119 476.795 32.4019 474.078 30.8836L472.127 34.3754C474.782 35.8591 477.026 37.2141 478.866 38.4411L481.085 35.1129ZM474.078 30.8836C471.256 29.3063 467.972 27.915 464.243 26.699L463.003 30.5019C466.542 31.656 469.578 32.9507 472.127 34.3754L474.078 30.8836ZM464.293 26.7161C460.469 25.3566 456.005 24.7045 450.943 24.7045V28.7045C455.677 28.7045 459.666 29.3164 462.953 30.4849L464.293 26.7161ZM450.943 24.7045C446.359 24.7045 442.266 25.2769 438.698 26.4661L439.963 30.2609C443.031 29.2381 446.68 28.7045 450.943 28.7045V24.7045ZM438.739 26.4529C435.212 27.5445 432.165 29.1188 429.642 31.2072L432.192 34.2888C434.25 32.5851 436.812 31.2365 439.922 30.2741L438.739 26.4529ZM429.615 31.2295C427.164 33.3304 425.317 35.8805 424.09 38.8595L427.789 40.3825C428.774 37.9894 430.245 35.9576 432.218 34.2665L429.615 31.2295ZM424.099 38.8399C422.876 41.7211 422.281 44.8742 422.281 48.2715H426.281C426.281 45.3487 426.791 42.7349 427.781 40.4021L424.099 38.8399ZM422.281 48.2715C422.281 52.6873 423.502 56.516 426.055 59.6154L429.143 57.0726C427.271 54.8 426.281 51.9137 426.281 48.2715H422.281ZM426.077 59.6419C428.566 62.5603 431.79 65.0041 435.695 66.9982L437.514 63.4358C433.993 61.6379 431.213 59.4997 429.12 57.0461L426.077 59.6419ZM435.695 66.9982C439.523 68.9529 443.855 70.691 448.68 72.2192L449.888 68.4058C445.234 66.932 441.112 65.2731 437.514 63.4358L435.695 66.9982ZM448.68 72.2192C453.401 73.7139 458.241 75.3272 463.2 77.0592L464.519 73.2828C459.525 71.5388 454.648 69.913 449.888 68.4058L448.68 72.2192ZM463.227 77.0684C468.123 78.7002 472.902 80.6429 477.565 82.8967L479.306 79.2953C474.489 76.9671 469.551 74.9598 464.492 73.2736L463.227 77.0684ZM477.589 82.9084C482.144 85.0337 486.193 87.7603 489.748 91.088L492.482 88.168C488.61 84.5437 484.207 81.5823 479.281 79.2836L477.589 82.9084ZM489.765 91.1036C493.258 94.2999 496.065 98.255 498.175 103.001L501.83 101.377C499.515 96.169 496.397 91.7501 492.465 88.1524L489.765 91.1036ZM498.185 103.025C500.325 107.674 501.439 113.416 501.439 120.32H505.439C505.439 113.003 504.261 106.658 501.819 101.353L498.185 103.025ZM501.439 120.32C501.439 127.825 500.138 134.842 497.55 141.388L501.27 142.859C504.054 135.817 505.439 128.298 505.439 120.32H501.439ZM497.545 141.4C495.041 147.851 491.327 153.497 486.394 158.355L489.2 161.205C494.536 155.951 498.565 149.826 501.274 142.847L497.545 141.4ZM486.394 158.355C481.548 163.124 475.58 166.936 468.453 169.772L469.932 173.488C477.498 170.478 483.933 166.39 489.2 161.205L486.394 158.355ZM468.47 169.765C461.395 172.504 453.234 173.896 443.952 173.896V177.896C453.63 177.896 462.295 176.444 469.914 173.495L468.47 169.765ZM443.952 173.896C438.637 173.896 433.402 173.357 428.245 172.279L427.427 176.195C432.855 177.329 438.364 177.896 443.952 177.896V173.896ZM428.217 172.274C423.047 171.27 418.074 169.805 413.297 167.879L411.801 171.589C416.82 173.613 422.039 175.15 427.455 176.2L428.217 172.274ZM413.308 167.883C408.601 165.954 404.169 163.642 400.01 160.946L397.834 164.302C402.207 167.136 406.86 169.564 411.791 171.585L413.308 167.883ZM400.01 160.946C395.859 158.256 392.184 155.267 388.976 151.984L386.115 154.778C389.544 158.289 393.452 161.462 397.834 164.302L400.01 160.946ZM389.251 154.426L398.613 139.139L395.202 137.05L385.84 152.337L389.251 154.426ZM398.535 139.257C399.143 138.405 399.943 137.689 400.969 137.112L399.008 133.626C397.506 134.471 396.251 135.572 395.28 136.932L398.535 139.257ZM401.048 137.065C402.01 136.464 402.989 136.184 404.017 136.184V132.184C402.202 132.184 400.494 132.694 398.928 133.673L401.048 137.065ZM404.017 136.184C405.424 136.184 407.151 136.778 409.243 138.292L411.589 135.053C409.099 133.249 406.56 132.184 404.017 132.184V136.184ZM409.281 138.319C411.603 139.921 414.355 141.715 417.533 143.701L419.653 140.309C416.51 138.345 413.811 136.584 411.552 135.026L409.281 138.319ZM417.533 143.701C420.814 145.752 424.599 147.621 428.876 149.315L430.35 145.597C426.253 143.973 422.692 142.208 419.653 140.309L417.533 143.701ZM428.919 149.331C433.463 151.015 438.806 151.826 444.9 151.826V147.826C439.144 147.826 434.296 147.057 430.308 145.581L428.919 149.331ZM444.9 151.826C454.279 151.826 461.836 149.624 467.294 144.946L464.691 141.908C460.195 145.762 453.691 147.826 444.9 147.826V151.826ZM467.308 144.934C472.814 140.127 475.458 133.32 475.458 124.822H471.458C471.458 132.441 469.125 138.037 464.677 141.92L467.308 144.934ZM475.458 124.822C475.458 119.972 474.218 115.824 471.579 112.547L468.464 115.057C470.407 117.468 471.458 120.667 471.458 124.822H475.458ZM471.6 112.574C469.182 109.465 465.977 106.919 462.044 104.911L460.225 108.473C463.718 110.257 466.437 112.451 468.443 115.03L471.6 112.574ZM462.073 104.926C458.216 102.874 453.854 101.166 449 99.7907L447.91 103.639C452.536 104.95 456.627 106.56 460.195 108.458L462.073 104.926ZM449 99.7907C444.284 98.4546 439.488 97 434.612 95.4271L433.384 99.2339C438.304 100.821 443.145 102.289 447.91 103.639L449 99.7907ZM434.612 95.4271C429.794 93.873 425.052 92.0076 420.387 89.8301L418.695 93.4549C423.509 95.7014 428.405 97.628 433.384 99.2339L434.612 95.4271ZM420.387 89.8301C415.841 87.7089 411.797 84.9486 408.244 81.5474L405.478 84.4366C409.352 88.1454 413.76 91.1521 418.695 93.4549L420.387 89.8301ZM408.244 81.5474C404.746 78.198 401.889 74.0037 399.691 68.9256L396.02 70.5144C398.404 76.0223 401.55 80.676 405.478 84.4366L408.244 81.5474ZM399.705 68.9585C397.62 63.896 396.537 57.5754 396.537 49.9305H392.537C392.537 57.9276 393.666 64.8 396.006 70.4815L399.705 68.9585ZM396.537 49.9305C396.537 43.9588 397.707 38.135 400.059 32.4455L396.362 30.9175C393.816 37.078 392.537 43.4201 392.537 49.9305H396.537ZM400.05 32.4664C402.471 26.7927 405.95 21.7599 410.503 17.359L407.723 14.483C402.795 19.2461 399.006 24.7203 396.371 30.8966L400.05 32.4664ZM410.503 17.359C415.032 12.981 420.648 9.44045 427.39 6.7589L425.912 3.04209C418.75 5.89053 412.674 9.69696 407.723 14.483L410.503 17.359ZM427.39 6.7589C434.064 4.10439 441.785 2.753 450.588 2.753V-1.247C441.379 -1.247 433.141 0.166599 425.912 3.04209L427.39 6.7589ZM450.588 2.753C460.489 2.753 469.573 4.29951 477.859 7.36849L479.248 3.6175C470.471 0.366489 460.911 -1.247 450.588 -1.247V2.753ZM477.859 7.36849C486.163 10.4441 493.193 14.7324 498.982 20.2169L501.733 17.3131C495.514 11.4215 488.008 6.86184 479.248 3.6175L477.859 7.36849ZM498.589 17.8318L490.649 32.8813L494.187 34.7477L502.127 19.6982L498.589 17.8318ZM667.915 146.982L668.581 148.868L667.915 146.982ZM677.513 141.294L676.123 139.857L676.111 139.868L676.099 139.88L677.513 141.294ZM682.727 132.999L680.84 132.338L680.832 132.359L680.825 132.381L682.727 132.999ZM682.609 112.972L680.749 113.707L680.752 113.715L680.755 113.724L682.609 112.972ZM677.039 105.388L675.75 106.917L675.764 106.929L675.778 106.941L677.039 105.388ZM667.204 100.53L666.665 102.456L666.674 102.459L667.204 100.53ZM620.752 98.871V96.871H618.752V98.871H620.752ZM620.752 149.115H618.752V151.115H620.752V149.115ZM620.752 27.297V25.297H618.752V27.297H620.752ZM620.752 76.83H618.752V78.83H620.752V76.83ZM670.759 70.905L669.607 69.2697L669.596 69.2775L670.759 70.905ZM676.684 5.8485L676.167 7.78065L676.684 5.8485ZM696.236 14.973L695.005 16.549L695.011 16.5537L695.017 16.5583L696.236 14.973ZM709.271 59.8845L711.173 60.5045L711.177 60.4926L709.271 59.8845ZM703.702 70.194L702.125 68.9634L702.121 68.9689L703.702 70.194ZM694.222 78.8445L693.105 77.1856L693.097 77.191L693.089 77.1964L694.222 78.8445ZM680.594 85.4805L679.945 83.5889L673.264 85.8823L680.156 87.4318L680.594 85.4805ZM711.76 143.783L709.935 142.964L711.76 143.783ZM699.673 159.78L700.956 161.315L700.962 161.309L700.969 161.303L699.673 159.78ZM588.875 174H586.875V176H588.875V174ZM588.875 2.64899V0.648987H586.875V2.64899H588.875ZM652.984 151.115C659.054 151.115 664.273 150.388 668.581 148.868L667.249 145.096C663.499 146.42 658.763 147.115 652.984 147.115V151.115ZM668.581 148.868C672.816 147.373 676.297 145.339 678.928 142.708L676.099 139.88C673.99 141.989 671.072 143.747 667.249 145.096L668.581 148.868ZM678.904 142.731C681.582 140.14 683.499 137.096 684.629 133.617L680.825 132.381C679.902 135.222 678.343 137.708 676.123 139.857L678.904 142.731ZM684.615 133.66C685.8 130.275 686.386 126.692 686.386 122.926H682.386C682.386 126.271 681.867 129.403 680.84 132.338L684.615 133.66ZM686.386 122.926C686.386 119.001 685.76 115.421 684.462 112.221L680.755 113.724C681.828 116.37 682.386 119.426 682.386 122.926H686.386ZM684.469 112.238C683.157 108.914 681.093 106.105 678.301 103.836L675.778 106.941C678.042 108.78 679.691 111.027 680.749 113.707L684.469 112.238ZM678.329 103.86C675.529 101.498 671.971 99.7645 667.733 98.6013L666.674 102.459C670.495 103.507 673.493 105.013 675.75 106.917L678.329 103.86ZM667.743 98.6041C663.567 97.4346 658.595 96.871 652.865 96.871V100.871C658.354 100.871 662.941 101.413 666.665 102.456L667.743 98.6041ZM652.865 96.871H620.752V100.871H652.865V96.871ZM618.752 98.871V149.115H622.752V98.871H618.752ZM620.752 151.115H652.984V147.115H620.752V151.115ZM618.752 27.297V76.83H622.752V27.297H618.752ZM620.752 78.83H646.111V74.83H620.752V78.83ZM646.111 78.83C657.198 78.83 665.903 76.8315 671.921 72.5325L669.596 69.2775C664.555 72.8785 656.828 74.83 646.111 74.83V78.83ZM671.91 72.5402C678.187 68.1199 681.172 61.1391 681.172 52.0635H677.172C677.172 60.2099 674.549 65.7901 669.607 69.2698L671.91 72.5402ZM681.172 52.0635C681.172 42.7826 678.534 35.6941 672.788 31.385L670.388 34.585C674.755 37.8599 677.172 43.4904 677.172 52.0635H681.172ZM672.788 31.385C667.218 27.2069 658.792 25.297 647.888 25.297V29.297C658.473 29.297 665.847 31.1791 670.388 34.585L672.788 31.385ZM647.888 25.297H620.752V29.297H647.888V25.297ZM647.888 4.64899C658.99 4.64899 668.405 5.70549 676.167 7.78065L677.2 3.91634C669.005 1.72549 659.223 0.648987 647.888 0.648987V4.64899ZM676.167 7.78065C683.958 9.86331 690.212 12.8048 695.005 16.549L697.468 13.3969C692.148 9.24123 685.368 6.09968 677.2 3.91634L676.167 7.78065ZM695.017 16.5583C699.896 20.3116 703.425 24.8196 705.652 30.0899L709.336 28.5331C706.823 22.5854 702.846 17.5344 697.456 13.3877L695.017 16.5583ZM705.652 30.0899C707.903 35.4175 709.049 41.4669 709.049 48.2715H713.049C713.049 41.0141 711.825 34.4235 709.336 28.5331L705.652 30.0899ZM709.049 48.2715C709.049 52.1012 708.486 55.7666 707.366 59.2764L711.177 60.4926C712.427 56.5764 713.049 52.4998 713.049 48.2715H709.049ZM707.37 59.2645C706.262 62.6616 704.521 65.8938 702.125 68.9635L705.279 71.4245C707.939 68.0162 709.911 64.3754 711.173 60.5045L707.37 59.2645ZM702.121 68.9689C699.822 71.935 696.828 74.6781 693.105 77.1856L695.339 80.5034C699.358 77.7969 702.684 74.7729 705.283 71.4191L702.121 68.9689ZM693.089 77.1964C689.474 79.6814 685.102 81.8185 679.945 83.5889L681.244 87.3721C686.673 85.5085 691.385 83.2216 695.355 80.4926L693.089 77.1964ZM680.156 87.4318C691.682 90.0232 700.09 94.3815 705.611 100.348C711.1 106.278 713.907 113.981 713.907 123.637H717.907C717.907 113.149 714.83 104.42 708.547 97.631C702.298 90.8784 693.049 86.2308 681.033 83.5292L680.156 87.4318ZM713.907 123.637C713.907 130.645 712.576 137.078 709.935 142.964L713.585 144.601C716.474 138.163 717.907 131.166 717.907 123.637H713.907ZM709.935 142.964C707.295 148.847 703.45 153.941 698.377 158.257L700.969 161.303C706.482 156.613 710.694 151.042 713.585 144.601L709.935 142.964ZM698.39 158.245C693.324 162.48 687.043 165.844 679.5 168.307L680.741 172.109C688.682 169.516 695.435 165.928 700.956 161.315L698.39 158.245ZM679.5 168.307C671.997 170.757 663.365 172 653.576 172V176C663.696 176 672.76 174.715 680.741 172.109L679.5 168.307ZM653.576 172H588.875V176H653.576V172ZM590.875 174V2.64899H586.875V174H590.875ZM588.875 4.64899H647.888V0.648987H588.875V4.64899ZM830.308 145.204L829.535 143.36L829.524 143.365L830.308 145.204ZM842.632 136.554L844.123 137.887L842.632 136.554ZM850.216 123.045L848.324 122.396L848.32 122.408L848.316 122.421L850.216 123.045ZM852.942 2.64899V0.648987H850.942V2.64899H852.942ZM884.818 2.64899H886.818V0.648987H884.818V2.64899ZM879.841 133.591L877.973 132.878L877.969 132.887L879.841 133.591ZM865.74 155.988L864.308 154.592L864.307 154.592L865.74 155.988ZM843.462 170.682L844.199 172.541L844.206 172.538L844.213 172.535L843.462 170.682ZM784.093 170.682L783.342 172.535L783.349 172.538L783.356 172.541L784.093 170.682ZM761.697 155.988L760.256 157.375L760.264 157.384L760.273 157.393L761.697 155.988ZM747.595 133.591L745.721 134.29L745.725 134.3L745.729 134.311L747.595 133.591ZM742.737 2.64899V0.648987H740.737V2.64899H742.737ZM774.613 2.64899H776.613V0.648987H774.613V2.64899ZM777.22 122.926L775.32 123.55L775.324 123.563L775.328 123.576L777.22 122.926ZM784.923 136.554L783.417 137.871L783.432 137.888L783.447 137.904L784.923 136.554ZM797.247 145.204L796.462 147.044L796.473 147.049L797.247 145.204ZM813.837 150.285C820.221 150.285 825.986 149.221 831.092 147.044L829.524 143.365C824.992 145.296 819.776 146.285 813.837 146.285V150.285ZM831.081 147.049C836.235 144.888 840.594 141.836 844.123 137.887L841.141 135.221C838.034 138.698 834.177 141.413 829.535 143.36L831.081 147.049ZM844.123 137.887C847.646 133.945 850.302 129.193 852.116 123.669L848.316 122.421C846.654 127.483 844.254 131.737 841.141 135.221L844.123 137.887ZM852.108 123.694C854.008 118.16 854.942 112.011 854.942 105.27H850.942C850.942 111.643 850.059 117.344 848.324 122.396L852.108 123.694ZM854.942 105.27V2.64899H850.942V105.27H854.942ZM852.942 4.64899H884.818V0.648987H852.942V4.64899ZM882.818 2.64899V105.27H886.818V2.64899H882.818ZM882.818 105.27C882.818 115.24 881.196 124.437 877.973 132.878L881.709 134.305C885.122 125.366 886.818 115.682 886.818 105.27H882.818ZM877.969 132.887C874.823 141.251 870.268 148.478 864.308 154.592L867.172 157.384C873.535 150.858 878.381 143.154 881.713 134.296L877.969 132.887ZM864.307 154.592C858.433 160.619 851.245 165.368 842.71 168.829L844.213 172.535C853.216 168.886 860.88 163.839 867.172 157.384L864.307 154.592ZM842.724 168.823C834.225 172.192 824.606 173.896 813.837 173.896V177.896C825.029 177.896 835.16 176.124 844.199 172.541L842.724 168.823ZM813.837 173.896C802.986 173.896 793.328 172.191 784.83 168.823L783.356 172.541C792.396 176.125 802.567 177.896 813.837 177.896V173.896ZM784.844 168.829C776.307 165.368 769.076 160.615 763.12 154.583L760.273 157.393C766.641 163.843 774.341 168.886 783.342 172.535L784.844 168.829ZM763.138 154.601C757.249 148.483 752.688 141.248 749.461 132.872L745.729 134.311C749.138 143.157 753.978 150.853 760.256 157.375L763.138 154.601ZM749.469 132.893C746.321 124.448 744.737 115.246 744.737 105.27H740.737C740.737 115.676 742.391 125.355 745.721 134.29L749.469 132.893ZM744.737 105.27V2.64899H740.737V105.27H744.737ZM742.737 4.64899H774.613V0.648987H742.737V4.64899ZM772.613 2.64899V105.151H776.613V2.64899H772.613ZM772.613 105.151C772.613 111.884 773.505 118.024 775.32 123.55L779.12 122.303C777.459 117.243 776.613 111.533 776.613 105.151H772.613ZM775.328 123.576C777.22 129.087 779.91 133.863 783.417 137.871L786.428 135.237C783.299 131.661 780.854 127.352 779.112 122.277L775.328 123.576ZM783.447 137.904C787.045 141.836 791.392 144.883 796.462 147.044L798.031 143.365C793.464 141.418 789.594 138.698 786.398 135.204L783.447 137.904ZM796.473 147.049C801.652 149.221 807.451 150.285 813.837 150.285V146.285C807.898 146.285 802.637 145.296 798.02 143.36L796.473 147.049ZM952.763 174V176H954.763V174H952.763ZM920.768 174H918.768V176H920.768V174ZM920.768 2.64899V0.648987H918.768V2.64899H920.768ZM952.763 2.64899H954.763V0.648987H952.763V2.64899ZM952.763 172H920.768V176H952.763V172ZM922.768 174V2.64899H918.768V174H922.768ZM920.768 4.64899H952.763V0.648987H920.768V4.64899ZM950.763 2.64899V174H954.763V2.64899H950.763ZM1091.5 147.693H1093.5V145.693H1091.5V147.693ZM1091.5 174V176H1093.5V174H1091.5ZM991.127 174H989.127V176H991.127V174ZM991.127 2.64899V0.648987H989.127V2.64899H991.127ZM1023 2.64899H1025V0.648987H1023V2.64899ZM1023 147.693H1021V149.693H1023V147.693ZM1089.5 147.693V174H1093.5V147.693H1089.5ZM1091.5 172H991.127V176H1091.5V172ZM993.127 174V2.64899H989.127V174H993.127ZM991.127 4.64899H1023V0.648987H991.127V4.64899ZM1021 2.64899V147.693H1025V2.64899H1021ZM1023 149.693H1091.5V145.693H1023V149.693ZM1260.13 122.926L1258.27 122.186L1260.13 122.926ZM1242.47 150.063L1241.06 148.649L1242.47 150.063ZM1215.1 167.719L1215.83 169.581L1215.1 167.719ZM1114.26 174H1112.26V176H1114.26V174ZM1114.26 2.64899V0.648987H1112.26V2.64899H1114.26ZM1215.1 9.04799L1214.36 10.905L1214.37 10.9097L1215.1 9.04799ZM1242.47 26.7045L1241.06 28.1187L1241.07 28.1261L1242.47 26.7045ZM1260.13 53.7225L1261.99 52.9821L1260.13 53.7225ZM1229.91 63.084L1228.01 63.7044L1228.01 63.7165L1228.02 63.7285L1229.91 63.084ZM1219.13 44.124L1217.64 45.4569L1217.65 45.4688L1217.66 45.4806L1219.13 44.124ZM1202.06 32.1555L1201.3 34.0017L1201.3 34.0049L1202.06 32.1555ZM1146.25 28.008V26.008H1144.25V28.008H1146.25ZM1146.25 148.641H1144.25V150.641H1146.25V148.641ZM1202.06 144.493L1201.3 142.644L1201.3 142.647L1202.06 144.493ZM1219.13 132.643L1217.65 131.298L1217.65 131.299L1219.13 132.643ZM1229.91 113.684L1228.02 113.045L1228.01 113.057L1229.91 113.684ZM1264.41 88.3245C1264.41 100.66 1262.36 111.939 1258.27 122.186L1261.99 123.667C1266.28 112.9 1268.41 101.111 1268.41 88.3245H1264.41ZM1258.27 122.186C1254.18 132.455 1248.44 141.267 1241.06 148.649L1243.89 151.477C1251.67 143.691 1257.71 134.412 1261.99 123.667L1258.27 122.186ZM1241.06 148.649C1233.68 156.025 1224.8 161.764 1214.37 165.858L1215.83 169.581C1226.73 165.301 1236.1 159.269 1243.89 151.477L1241.06 148.649ZM1214.37 165.858C1203.97 169.942 1192.37 172 1179.55 172V176C1192.8 176 1204.9 173.871 1215.83 169.581L1214.37 165.858ZM1179.55 172H1114.26V176H1179.55V172ZM1116.26 174V2.64899H1112.26V174H1116.26ZM1114.26 4.64899H1179.55V0.648987H1114.26V4.64899ZM1179.55 4.64899C1192.36 4.64899 1203.96 6.74532 1214.36 10.9049L1215.84 7.19104C1204.91 2.81866 1192.81 0.648987 1179.55 0.648987V4.64899ZM1214.37 10.9097C1224.8 15.0031 1233.68 20.7423 1241.06 28.1187L1243.89 25.2903C1236.1 17.4987 1226.73 11.4669 1215.83 7.18632L1214.37 10.9097ZM1241.07 28.1261C1248.44 35.426 1254.18 44.1959 1258.27 54.4629L1261.99 52.9821C1257.7 42.235 1251.67 32.993 1243.88 25.2829L1241.07 28.1261ZM1258.27 54.4629C1262.36 64.7096 1264.41 75.989 1264.41 88.3245H1268.41C1268.41 75.5379 1266.28 63.7494 1261.99 52.9821L1258.27 54.4629ZM1235.7 88.3245C1235.7 78.7465 1234.42 70.1095 1231.81 62.4395L1228.02 63.7285C1230.46 70.9105 1231.7 79.1005 1231.7 88.3245H1235.7ZM1231.81 62.4636C1229.29 54.7205 1225.56 48.1397 1220.6 42.7674L1217.66 45.4806C1222.18 50.3782 1225.64 56.4375 1228.01 63.7044L1231.81 62.4636ZM1220.62 42.7911C1215.75 37.3434 1209.81 33.1815 1202.83 30.3061L1201.3 34.0049C1207.75 36.6595 1213.19 40.4766 1217.64 45.4569L1220.62 42.7911ZM1202.83 30.3093C1195.92 27.4275 1188.14 26.008 1179.55 26.008V30.008C1187.7 30.008 1194.94 31.3535 1201.3 34.0016L1202.83 30.3093ZM1179.55 26.008H1146.25V30.008H1179.55V26.008ZM1144.25 28.008V148.641H1148.25V28.008H1144.25ZM1146.25 150.641H1179.55V146.641H1146.25V150.641ZM1179.55 150.641C1188.14 150.641 1195.92 149.222 1202.83 146.34L1201.3 142.647C1194.94 145.295 1187.7 146.641 1179.55 146.641V150.641ZM1202.83 146.343C1209.8 143.47 1215.74 139.353 1220.61 133.988L1217.65 131.299C1213.2 136.204 1207.76 139.987 1201.3 142.644L1202.83 146.343ZM1220.61 133.989C1225.56 128.546 1229.28 121.973 1231.81 114.31L1228.01 113.057C1225.64 120.246 1222.18 126.313 1217.65 131.298L1220.61 133.989ZM1231.81 114.322C1234.42 106.577 1235.7 97.9031 1235.7 88.3245H1231.7C1231.7 97.5479 1230.46 105.78 1228.02 113.045L1231.81 114.322Z" fill="url(#paint0_linear_140_2587)"/>
<defs>
<linearGradient id="paint0_linear_140_2587" x1="628.5" y1="-60" x2="629.736" y2="174.609" gradientUnits="userSpaceOnUse">
<stop stop-color="white" stop-opacity="0.79"/>
<stop offset="1" stop-color="#ACACAC" stop-opacity="0"/>
</linearGradient>
</defs>
</svg>
