<svg width="1919" height="654" fill="none" xmlns="http://www.w3.org/2000/svg"><path fill="url(#a)" d="M69 104h1782v550H69z"/><path fill="url(#b)" d="M69 104h1782v550H69z"/><path fill="url(#c)" d="M69 104h1782v550H69z"/><g clip-path="url(#d)" fill-rule="evenodd" clip-rule="evenodd"><path d="m1389.13 373.828 5.18 16.998a117.17 117.17 0 0 1 13.69 8s11.68 1 16.19 7.999c0 0 4.51 5.166 5.01 21.998a22.666 22.666 0 0 1-3.17 5.166s.5 3.667 1.83 9c0 0-2.17 6.333-4.34 13.499s-2 15.665-1.67 25.331l.34 3.333a118.414 118.414 0 0 1-9.69 16.499s-7.17 9.332-15.02 11.332c0 0-8.85 3-18.53-7.166-9.68-10.166-12.19-14.332-12.19-14.332s.5-14.332 0-16.999c-.36-3.9-1.32-7.722-2.84-11.332-7.51-3-20.53-14.832-23.7-23.498-5.68-15.332-5.18-38.664 3.17-42.497 0 0 16.19-6.166 20.2-9.666a57.273 57.273 0 0 0 4.84-18.665 82.761 82.761 0 0 0 20.7 5Z" fill="#000"/><path d="M1393.14 510.147a376.735 376.735 0 0 0 14.52 52.996c-5.17 13.999-5.17 38.164 4.51 45.996 1.17 6.5 3.68 21.998 3.51 23.832a58.184 58.184 0 0 1-2.34 11.832 37.848 37.848 0 0 0-.83 10.666s2 3.166 7.51 3.5c5.51.333 6.34-.167 9.68.999a40.795 40.795 0 0 0 14.69 2.667c7.68 0 11.02.167 10.52-1.167-.5-1.333-15.36-9.499-15.36-9.499s-7.68-5.5-9.51-7.333a32.086 32.086 0 0 1-3.84-4.499c-.64-9.883-.53-19.799.33-29.665.67-9.665 6.18-25.164-2.84-44.496.5-2.166 1.5-5.166 1.17-6.333-.33-1.166-1.84-7.166-1.84-7.166s10.52-41.33-.83-67.328c0 0-5.84-3.833-15.03 2.833-9.18 6.667-14.02 22.165-14.02 22.165Z" fill="#000"/><path d="M1366.76 491.481s-2.67 17.166-4.51 31.331c-1.84 14.166-3.17 33.997-2.84 40.497 0 0-13.85 13.999-18.03 29.497 0 0-2 8.166-1.17 23.832.84 15.665 2.17 24.498 2.68 33.497 0 0-3.84 8.499-6.01 14.666-2.17 6.166-2.34 7.332-1.67 12.332.66 4.999 1.83 10.166 3.33 10.832 1.51.667 11.52-8.666 14.86-20.165 0 0-2.17-12.999-2-18.665.17-5.666 1.84-19.498 4.67-26.664a165.599 165.599 0 0 0 11.02-21.165c4.34-10.666 5.34-24.665 5.34-27.998a16.31 16.31 0 0 0 2.34-4.166c.17-1.334.34-4 .34-4a40.64 40.64 0 0 0 6.17-8.333c7.68-12.999 14.19-33.83 18.03-48.162 6.35-23.832-26.71-24.498-32.55-17.166ZM1351.73 397.49s-21.53-2.167-32.05 5.333c0 0-5.68 4.666-7.51 18.998-1.84 14.332 1.83 29.664 3.17 33.664a32.376 32.376 0 0 0-2.5 7.666 37.463 37.463 0 0 0 1.67 17.165c2.67 7.5 11.01 16.666 17.19 29.665 0 0-.67 9.499 1.17 13.832a21.504 21.504 0 0 0 4.67 7.166l11.02.5c1.14.574 2.31 1.075 3.51 1.5a15.839 15.839 0 0 0 3.17-3.667c.23-.926.34-1.878.33-2.833.59-.135 1.15-.36 1.67-.666a31.473 31.473 0 0 0-2-6.5 19.227 19.227 0 0 1-2-7.499 18.257 18.257 0 0 0-6.35-3.333 11.074 11.074 0 0 1-3.34-1.834s-2.83-7.332-2.67-20.498c.17-13.165-.16-17.498-4.5-24.165a196.69 196.69 0 0 0 13.02-35.163c5.17-19.332 2.33-29.331 2.33-29.331ZM1406.66 398.823s9.18-.333 15.03 1.833c1.67.52 3.25 1.308 4.67 2.333 1.34 1.334 9.02 16.499 11.52 47.497 0 0 4.34.5 11.85 6.666 0 0 6.01 4.833 18.87 8.666l-.34 11.332s-12.52-.5-21.7-.167c-9.18.334-17.03 0-20.2-1.499a39.744 39.744 0 0 0-3.34-6.333c.07-2.788.29-5.57.67-8.333.67-4.5 2.34-10.832 3.67-16.999-4.34 6.5-6.17 10-7.34 21.832-4.01-3.833-18.7-18.165-17.53-32.164 1.17-13.999 4.17-34.664 4.17-34.664Z" fill="#000"/><path d="M1467.43 467.817a22.983 22.983 0 0 1-.34-8.666 52.314 52.314 0 0 1 10.19-2.167v.667c3.84.167 8.68.833 11.85 3.166.83 1.71 1.17 3.61 1 5.5l-1.5.5c-.53 1.392-.87 2.85-1 4.333a21.408 21.408 0 0 0 0 4.666 10.696 10.696 0 0 1-2.67 5.5c-3.79.949-7.76.892-11.52-.167l-.5-.5s-6.35-.667-6.85-4.333c-.18-2.896.28-5.796 1.34-8.499ZM1343.39 403.488c.58-2.492 1.6-4.862 3.01-7 1.5-9.999 5.5-10.332 9.51-16.332-.07-1.49.22-2.976.84-4.333 1.83-3.333 3-4.166 4.84-8.499 3.67-7.999 7.84-16.832 10.52-19.665a38.289 38.289 0 0 1 15.86.167c2.25.647 4.31 1.836 6 3.463a14.342 14.342 0 0 1 3.68 5.869s.67 6.166.67 11.666c0 5.499 4.17 3.833 5.34 6.666s-.5 4.666.67 7.166c-3.18-1.666-1.84-5.333-5.18-6.999-3.34-1.667-2-2.5-2.34-3.833-.16 2.134.06 4.28.67 6.332 1.67 4 4.68 3.167 5.84 6.167 2.84 6.499 7.02 5.666 8.02 3.333.83 3.333-3.84 5.999-7.01 1.833-.51 8.666 13.52 2.166 13.02 10.666-.17 1-1.5-3.333-8.18-2.333-1.84.333-3.68.833-4.84 5.332-9.35 3.833-30.05 6.5-30.05 6.5l-30.89-6.166Zm5.18-8.166a12.18 12.18 0 0 0 4-4.333c-.5-1.333.5-3.167 1.67-4.833-2.34 1.5-5.84 5.499-5.67 9.166Z" fill="#000"/><path d="m1461.92 360.993 2.17-62.662a87.393 87.393 0 0 0-10.68 23.665c2.5-2.666 3.84-4 6.67-3.833 0 10.006-2.11 20.603-4.09 30.488-2.6 12.999-4.95 24.767-1.92 32.34 2.22-5.03 5.6-9.464 9.87-12.94a34.853 34.853 0 0 1 13.17-6.697l-7.18 305.448a9.022 9.022 0 0 0 7.18.167l7.33-305.431a34.898 34.898 0 0 1 12.97 7.311 34.776 34.776 0 0 1 9.25 13.309c3.41-7.361 1.62-19.158-.36-32.212-1.52-9.999-3.15-20.736-2.64-30.783 2.67 0 4 1.5 6.34 4.166a82.894 82.894 0 0 0-9.52-23.998l-.66 62.662a39.86 39.86 0 0 1-9.85-9.999c-3.84-6.5-5.51-26.998-5.18-53.996 2.89.92 5.33 2.881 6.85 5.5-1.67-10.333-4.68-18.666-8.68-29.498-.23.536-.46 1.066-.68 1.59-4.18 9.887-7.45 17.603-9.51 27.574a11.364 11.364 0 0 1 3.04-3.402 11.382 11.382 0 0 1 4.14-1.931c-1 26.998-3.67 47.33-7.85 53.663a38.892 38.892 0 0 1-10.18 9.499Z" fill="url(#e)"/><path d="M1137.21 405.488c12.69 51.33 18.36 140.322 80.13 190.985 0 0 13.03-38.497 49.25-42.163 28.55-2.667 50.25 7.332 69.62-16.166-71.79-33.83-61.44-111.991-74.12-142.655-35.23-.333-89.82 6-124.88 9.999Z" fill="url(#f)"/><path d="m1135.71 404.823 26.88-9.666c11.51-3.833 12.68-7 17.52-13.666l6.01-36.497 3.51 5.666s7.68-3.833 15.19 0l3.68-5.666s2 14.332 2.83 22.998c.84 8.666 1.51 10.499 1.84 12.499a9.354 9.354 0 0 0 1.92 3.352 9.465 9.465 0 0 0 3.09 2.314c2.67 1 31.72 7 44.24 7.333 0 0-16.86 36.997-39.23 57.995a116.737 116.737 0 0 0 2.17 38.997c-6.51 5.666-14.03 12.833-23.54 17.665-2.51 1.334-7.35 1.5-10.85 1.167-3.51-.333-20.54-13.666-26.38-23.165 2.34-13.999 4.51-28.997 3.5-36.163 0 0-13.52-15.832-16.02-23.499.08-2.621.3-5.236.67-7.832-4.51-8-13.69-11.833-17.03-13.832Z" fill="#000"/><path d="M1244.72 494.151a52.22 52.22 0 0 0-9.01 5.166c-.5 3.333.67 4.833.83 7.999 1.31.493 2.64.883 4.01 1.167.51 1.67 1.18 3.288 2 4.833a22.89 22.89 0 0 0 13.52-4.5s-1.16-6.833-2.33-10.999c7.18-19.998 17.36-44.163 8.01-53.829 0 0 1.84-12.666 3.67-21.332 1.84-8.665 1.17-22.498-3-29.164l-28.55 29.331s13.19 40.663 10.85 71.328ZM1135.71 404.822a69.462 69.462 0 0 0 .67 22.332c2.17 12.999 2.5 17.498 2.5 17.498-8.35 7-9.35 9.333-6.68 27.165 1 7.166 4.01 17.998 4.84 27.331 0 0-.83 10.999-2 13.499a24.06 24.06 0 0 1 12.52 6.499c.77-2.048 1.33-4.17 1.67-6.333 1.13.006 2.26-.163 3.34-.5.16-2.906.49-5.8 1-8.665a17.13 17.13 0 0 0-6.68-3.667s3.68-16.665 9.19-32.997 14.19-36.997 15.02-40.664c.84-3.666-7.18-19.331-35.39-21.498ZM1164.59 486.148a123.233 123.233 0 0 0-9.35 33.998c-2.33 18.498-2.67 34.663-3.84 42.996 0 0-13.69 12.166-17.03 19.665 0 0-1.33 4.833-1.67 17.832-.33 12.999-.16 37.33-2 45.163a29.917 29.917 0 0 1-6.01 5.999c-2.5 1.667-5.51 3.334-6.68 5.5-1.16 2.167-.83 3.333-1 3.666-.16.334 4.68 2.5 8.18 3.5 2.54-.19 5.02-.81 7.35-1.833 0 0 .67-4 7.68-6.333a63.038 63.038 0 0 0-1-7.499 189.248 189.248 0 0 1 9.85-30.164c6.51-15.666 10.85-21.999 11.51-26.332.67-4.333 1.01-12.832 1.34-18.998 2.84-5.666 3.01-8.166 5.84-13.832 2.84-5.666 20.2-35.831 24.21-52.663 4.01-16.832-27.38-20.665-27.38-20.665ZM1196.31 507.313s12.85 26.165 16.53 35.664c3.67 9.499 7.34 23.998 13.85 31.831 0 0-1.17 18.498-.67 21.498.51 3 5.18 10.999 8.35 17.999a130.291 130.291 0 0 1 10.52 29.997l-1.84 6.666a24.574 24.574 0 0 0 0 5s8.02 2.166 11.36 6.999c2.6.339 5.22.506 7.84.5a18.53 18.53 0 0 0 7.18-2.5c0-1.391-.47-2.742-1.33-3.833l-9.35-5.499a56.241 56.241 0 0 1-5.85-8.166c-.75-7.697-.97-15.437-.66-23.165.5-12.999 1.66-24.998-1.17-31.497-2.84-6.5-12.52-18.999-12.52-18.999-.86-6.629-1.14-13.32-.84-19.998.17-13.166-.33-21.665-1.33-26.165-1.01-4.499-7.52-24.998-11.02-33.164a8.869 8.869 0 0 0-5.22-3.629 8.853 8.853 0 0 0-6.3.796c-7.85 3.5-17.53 19.665-17.53 19.665ZM481.952 359.658l-4.841 24.332-18.364 13.165-3.673 44.163 23.373 31.831 3.505.167-2.504 40.83 2.338.833 4.006-7.166 25.042 3.999 1.67 12.833 8.848-1.333 16.193-21.999.835-28.164 2.504.167 3.172-19.832.334-12.832 6.678-6.5-6.845-27.498-22.037-18.831-10.016-3.333-1.002-12.499-29.216-12.333Z" fill="#000"/><path d="M473.269 392.991s-26.377-2.667-37.73 13.332l-4.173 19.499 1.168 1.999a173.341 173.341 0 0 0-8.18 19.499l-4.174 2a40.462 40.462 0 0 0-8.18 19.665 88.825 88.825 0 0 0 3.673 20.998l2.337.333v5.833l.835.5v1l-1.002.333.501 7.5 1.169.5.333 1.999-2.838 1.834s1.67 8.332 9.349 21.665c0 0 16.194-1 23.707-2.334a38.207 38.207 0 0 0 6.177-6.999 33.112 33.112 0 0 1-2.338-8.666 15.334 15.334 0 0 0 3.673-4.333 35.292 35.292 0 0 0-3.84-9.333 19.726 19.726 0 0 0-9.516-2.499l.835-3.833-.668-.334.334-1.5h.668l1.503-6.166-.835-.666 1.168-2.167h.835a68.022 68.022 0 0 0 5.009-11.166s.167-6.666-.167-9.665l-3.005-2.5a4.684 4.684 0 0 1-3.172 1l.834-2.167s11.854.334 20.702-23.165l8.347-.333 4.174-16.332s1.502-20.165-7.513-25.331ZM571.102 436.653a151.906 151.906 0 0 0 5.175 16.832c4.841 1.167 12.688 1 18.865.833 3.339-10.332 6.844-30.497 7.512-43.829l-29.215-3.667-2.337 29.831ZM515.008 509.981a344.191 344.191 0 0 1-25.209 52.829l-4.508 4s0 8.166-4.507 10.999l-15.86 35.664a42.098 42.098 0 0 0-3.172 19.831l-2.17 2 3.339 6.666-2.171 1.833 8.181 7.333a29.502 29.502 0 0 1 7.345 9.666 49.552 49.552 0 0 1-3.506 13.832 143.652 143.652 0 0 1-24.875 2s-13.689-3.833-17.696-5.999c0 0-.835-6.833-5.676-9.666.14-4.588.642-9.157 1.503-13.666l-2.838-1a98.669 98.669 0 0 0 5.008-23.331c.835-11.833 3.673-34.831 8.848-50.496 0 0 7.346-10.999 13.69-16.165l3.672.5a10.677 10.677 0 0 1 4.508-4.5l.501-4.333s7.846-24.831 19.866-53.496l9.516-8.666 25.543.667.668 23.498Z" fill="#000"/><path d="M532.871 486.819a158.123 158.123 0 0 1 13.523 55.496s1.335 1.833 2.17 8.332a15.477 15.477 0 0 1-2.838 10.666s-2.337 33.331 11.853 53.496l-3.673 5.499 10.685 9.333-2.338 2.5 3.673 1.333 1.503-2 19.699 12.999-2.337 12.999-9.182 1.666-27.045 1s-8.681-7.499-28.715-3.999c0 0-1.836-14.832 2.338-24.165l-4.007-.667a63.735 63.735 0 0 0 2.17-22.331l-2.504-11.999-9.516-24.331a77.424 77.424 0 0 1 2.337-14.666l2.504-2.5a31.283 31.283 0 0 1 2.004-11.165s-6.177-8.166-11.186-34.331c-5.008-26.165 28.882-23.165 28.882-23.165ZM512.003 392.824s-2.17 26.498 14.024 37.497l19.699 3.833 1.837-1.333s14.691 7.499 26.043 9.166c5.676-10.166 5.175-16.665 4.341-24.498 0 0 .334-11.833-23.373-20.332l-.667-8.332-16.361-3.833s-20.534-1.334-25.543 7.832Z" fill="#000"/><path d="M568.432 421.82a251.53 251.53 0 0 1-7.346-31.997 101.675 101.675 0 0 0 11.018-12.333c3.506-19.831 3.172-38.663 4.842-57.995.652-.551 1.384-1 2.17-1.333.167-1.167.167-1.833.334-3.167 3.673-4.333 16.695-3.999 20.367.5v2.667l2.338 1.5c0 13.165 1.335 48.162 2.17 53.995a21.204 21.204 0 0 1 2.504 3.5 167.988 167.988 0 0 1-1.169 34.497 97 97 0 0 1-14.524 14.332 78.55 78.55 0 0 1-22.704-4.166Z" fill="url(#g)"/><path d="M479.109 356.824c-2.504 1-2.504 3.667-2.004 6 .501 2.333 1.67 5.666 5.677 5.999a28.41 28.41 0 0 0 0 4.167c5.008 4.999 9.015 6.166 16.193 12.832a66.24 66.24 0 0 0 10.685-1c2.003-7.666 5.175-10.166 6.177-16.832a47.097 47.097 0 0 1-.501-2.833l1.836-1.167a28.776 28.776 0 0 0-1.001-8.666l-1.67-.5 1.002-1.499s-.835-5.333-1.336-7.833a32.528 32.528 0 0 0-10.183-9.666 28.112 28.112 0 0 0-8.181-.167l-.334 1.334a21.227 21.227 0 0 0-9.015 3.999l-2.337-.5a44.826 44.826 0 0 0-5.008 10.166s-.167 3.167 0 6.166ZM1047.56 416.654c7.35-7 8.85-14.166 9.18-23.832 0-3.499-7.84-17.665-10.35-20.165-2.5-2.499-12.68-3.999-13.85-3.333a9.027 9.027 0 0 0-3.84 3s-4.18 0-5.51 1.333c-1.34 1.334-3.84 6.666-5.85 14.166a51.965 51.965 0 0 1-4.34 9.499c-7.51 15.499 13.53 25.165 19.2 32.664 2.67 3.5 12.36-10.166 15.36-13.332Z" fill="#000"/><path d="M1029.86 415.322c-7.84 1.5-11.68.334-14.19 1.333-5.17 2-6.84 6.5-9.35 12.333-3.5 8.332-6.341 17.832-8.845 24.331 0 0-6.511 4.666-9.349 9.833-2.838 5.166-4.674 31.33-6.01 39.663a22.992 22.992 0 0 0-4.007 6.833c.349 1.89.909 3.734 1.67 5.499 3.339 2.5 2.17 3.5 6.177 5.667 1.502-.667 2.337-2.833 2.838-4.167l2.003.334a20.642 20.642 0 0 0 2.504-5.833 8.013 8.013 0 0 1-1.168-2.833 6.002 6.002 0 0 0-3.005-4.5 104.416 104.416 0 0 1 4.507-17.332c2.338-6.499 10.515-16.165 9.685-25.998a81.189 81.189 0 0 1 7.84-11.832c3.25-3.89 6.21-8.012 8.85-12.332.84-1.5 9.69-20.499 9.85-20.999Z" fill="#000"/><path d="M1030.2 405.99s-.51 6.833-1.67 8.833a17.67 17.67 0 0 0-9.35 7.332c-1.84 2.667-5.35 4.667-7.18 11.999-1.84 7.333-.84 14.499 2.84 16.666 0 0 1 6.499 2.17 10.832 1.17 4.333 1.83 6.5 1 9.833-.84 3.333-3.17 8.832-3.84 13.999-.67 5.166-1.17 8.499-1.17 8.499l22.54 12.499a13.96 13.96 0 0 0 5.01-1c2-.833 20.7-20.332 20.7-20.332a168.373 168.373 0 0 0-14.03-16.332c.34-4.499 3.01-11.166 4.18-15.498a50.584 50.584 0 0 1 3.17-8.333 14.173 14.173 0 0 0 2.67-6c.84-5.999-2.84-18.831-2.84-18.831a30.738 30.738 0 0 1-7.84-3.167c-2.17-1.666-4.18-4.499-4.51-14.165-.34-9.666-11.85 3.166-11.85 3.166Z" fill="#000"/><path d="M1013 493.983s-3 7.832-5.34 12.332c-7.51 14.665-6.51 30.164-8.847 42.663-.501 2.333-3.339 14.332-5.175 17.499-6.678 9.832-9.349 16.332-11.018 23.331-3.005 13.666-2.505 29.998-5.844 42.83a39.516 39.516 0 0 0-2.838 6.999c-1.001 3.667-3.839 13.833-4.34 14.833a8.48 8.48 0 0 0 .668 4.666 20.314 20.314 0 0 0 3.005 6.333c.667.5 4.173.833 5.175-.667a50.652 50.652 0 0 0 3.172-7.499c.668-1.833.501-2.833.334-6-.167-3.166-.167-8.333-.835-14.999 1.67-11.832 15.192-26.997 19.363-38.83a62.876 62.876 0 0 0 4.18-19.665c1-4.333 3.5-5.666 6.17-9.666 3.2-4.367 5.58-9.28 7.02-14.499 5.5-17.331 16.52-30.33 18.36-49.662 0-5-14.36-25.665-23.21-9.999ZM1037.88 504.147s.5 6.166 1.33 13.332c.91 6.793 1.3 13.646 1.17 20.498a79.531 79.531 0 0 0 1.5 19.166c.82 4.691 2 9.314 3.51 13.832 0 10.666-5.18 12.332-.84 35.164 1.34 7.166 2.51 7.999 3.01 28.497a5.696 5.696 0 0 0-.5 2.667c.31 1.082.42 2.211.33 3.333-.17 4.499-.83 9.832-1.17 12.499-.48 2.045-.36 4.184.34 6.166.83 2.333 2.33 5.999 3.67 6.166 1.33.167 3.34.5 4.17-.833.84-1.334 3.84-8.666 3.34-10.833a86.345 86.345 0 0 1-2.67-9.332c-.5-2.5-2-7.166-2-7.166-1-15.666 4.67-24.665 6.84-36.997 1.67-8.833 1.17-18.166-2.5-30.165a52.97 52.97 0 0 1 .16-6.666c2.68-12.832 6.68-25.164 8.18-38.163 1.51-12.999 1.51-29.331-4.5-40.164l-14.69 3.333-8.68 15.666ZM1054.4 420.154c2.68.834 5.35 1.5 6.85 3.667 4.17 5.999 4.34 9.332 5.34 17.665.44 2.415.99 4.807 1.67 7.166.84 3.333 2.67 8.833 3.51 12.166l1.67 5.999c1.16 4-2.84 7.5-6.68 3.333a23.4 23.4 0 0 1-3.51-5.833c-4-8.499-8.18-16.998-12.35-25.664s-2.34-16.332 3.5-18.499Z" fill="#000"/><path d="m1067.43 582.143 7.51 14.665-14.69-7.166-69.284-65.995-9.348.5v-1.333l5.843-5.999-21.87-21.165a5.013 5.013 0 0 1-4.007-1.334 4.666 4.666 0 0 1-1.346-5.214 4.663 4.663 0 0 1 2.601-2.663 4.69 4.69 0 0 1 3.726.081 4.683 4.683 0 0 1 1.53 1.13 4.169 4.169 0 0 1 1.336 4l21.869 21.165 5.51-5.666h1.836v9.332l68.784 65.662Z" fill="url(#h)"/><path d="M1126.76 493.691c5.23 22.412-8.74 44.807-31.19 50.022-22.45 5.216-44.88-8.724-50.11-31.135-5.22-22.412 8.74-44.807 31.19-50.023 22.45-5.215 44.89 8.725 50.11 31.136Zm-57.63 18.069c-4.7-9.629-.86-21.255 8.54-25.836 9.39-4.581 20.92-.451 25.61 9.178 3.79 7.768 2.08 16.727-3.52 22.305-.8.526-1.39.135-1.6-.303l-2.35-4.814c-.8-1.641-1.87-2.475-2.77-2.71 3.62-2.312 6.83-5.77 3.57-12.444-.96-1.969-2.35-3.189-4-3.872a2.138 2.138 0 0 1-.03-.162c-.13-.684-.48-2.559-2.43-4.329 0 0-1.6.239-3.79 4.15-1.54.349-3.04.807-4.53 1.536-1.5.728-2.83 1.515-4 2.629-4.38-.575-5.55.54-5.55.54.21 2.875 1.6 4.366 2.02 4.699-.48 1.724-.32 3.678.59 5.538 3.26 6.674 7.95 6.28 12.01 4.844-.22.646-.38 1.672.05 2.818-.85.958-2.93 2.921-5.71 1.024 0 0-1.76-1.172-3.52-.449 0 0-1.71.833.43 1.146 0 0 1.44-.025 3.14 1.58 0 0 2.62 2.923 6.89-.514l1.44 2.955c.27.547.16 1.14-.75 1.448-7.84.981-15.95-3.189-19.74-10.957Z" fill="url(#i)"/><path d="M779.945 402.155c13.189 61.828 23.206 135.322 71.62 181.318 44.574-51.995 85.476-15.498 115.025-51.829-34.056-50.329-37.061-56.328-54.758-130.656-50.083 0-81.97 1.167-131.887 1.167Z" fill="url(#j)"/><path d="M867.929 472.32c35.059-29.997 44.241-72.994 44.241-72.994-36.227-14.498-49.75-23.664-54.758-29.164h-23.373c-5.008 5.5-18.531 14.666-54.758 29.164 0 0 9.182 42.997 44.241 72.994 8.848 7.666 35.726 7.5 44.407 0Z" fill="#000"/><path d="M859.745 361.494c2.838.333 2.671 7.666 0 7.999.303 1.985.415 3.994.334 6a89.07 89.07 0 0 1-6.845 12.332 71.92 71.92 0 0 1-14.691-.167 120.768 120.768 0 0 1-6.678-12.499 27.849 27.849 0 0 1 .167-5.499c-2.671-.5-3.505-8.499-.167-8.499a70.73 70.73 0 0 1 .334-12.833s1.002-2.666 2.171-3.333c7.011-3.833 16.36-4.166 23.038 0a10.66 10.66 0 0 1 2.17 3.333c.382 4.379.437 8.779.167 13.166ZM779.279 399.322s-13.523 13.666-14.691 51.996c0 0-10.184 4.333-15.86 21.165-3.172 6.499.668 32.664-2.337 52.162 1.502 3.167 4.507 10 19.031 19.332a34.212 34.212 0 0 1 12.354-12.166 31.64 31.64 0 0 0-4.674-8.999 6.498 6.498 0 0 0 1.169-3.166 34.964 34.964 0 0 0-5.51-5.166 12.203 12.203 0 0 1-6.844.999c3.672-15.998 12.187-19.665 16.193-30.497a45.418 45.418 0 0 0 2.004-21.165s15.859-11.832 23.539-27.164l-17.028-33.331-7.346-4ZM871.6 490.48c-9.85 8.333-14.358 20.332-21.87 24.331a27.87 27.87 0 0 1-8.347 0c-12.02-9.332-8.181-15.332-21.703-24.331l1.836-4.5h48.414l1.67 4.5Z" fill="#000"/><path d="M821.016 469.484h49.416a126.943 126.943 0 0 0 0 17.832c-12.354 4.5-33.056 5-49.416 0a79.587 79.587 0 0 0 0-17.832Z" fill="#000"/><path d="M822.016 485.816s-21.536 29.331-28.714 82.994a24.8 24.8 0 0 1-.668 10.665c-2.003 6.167-5.342 9.666-6.511 16.666-3.172 19.165 2.337 30.83-5.008 55.662-3.172 4.833-14.358 13.499-15.693 19.832 2.17 3.166 7.012 5.499 15.86 4.999 8.681-4.333 6.01-7.833 14.19-14.999a17.639 17.639 0 0 0-2.003-10.832c0-9.499 9.015-29.664 18.698-41.83 3.672-6.833 1.502-17.165-1.67-26.998-3.172-9.832 7.513-16.498 10.017-20.165 14.357-20.665 20.868-34.497 25.71-54.829 2.504-14.832-12.855-14.832-24.208-21.165Z" fill="#000"/><path d="M869.435 485.816s21.369 29.331 28.715 82.994a22.284 22.284 0 0 0 .667 10.665c2.004 6.167 5.343 9.666 6.511 16.666 3.005 19.165-2.337 30.83 5.009 55.662 3.172 4.833 14.19 13.499 15.526 19.832-2.004 3.166-6.845 5.499-15.693 4.999-8.848-4.333-6.177-7.833-14.191-14.999a16.808 16.808 0 0 1 1.837-10.832c0-9.499-9.015-29.664-18.698-41.83-3.506-6.833-1.336-17.165 1.669-26.998 3.005-9.832-7.512-16.665-10.183-20.165-14.692-20.165-21.369-35.997-25.376-54.829-2.671-14.832 13.689-19.665 24.207-21.165ZM837.208 410.656s-50.084 2.667-59.099-12.665l10.685-6.333 2.003 1.666 10.184-7.666 2.671 2.333c3.84-2.999 8.18-6.166 10.852-8.499 4.507 9.499 14.357 22.498 22.704 31.164ZM912.166 399.322s13.523 13.832 14.524 52.163c0 0 10.351 4.333 16.027 20.998 3.172 6.499-.668 32.664 2.337 52.162-1.502 3.333-4.507 10-19.032 19.332a34.202 34.202 0 0 0-12.353-12.166 27.49 27.49 0 0 1 4.674-8.999 6.498 6.498 0 0 1-1.169-3.166 29.707 29.707 0 0 1 5.51-5 14.036 14.036 0 0 0 6.844.833c-3.672-15.998-12.187-19.498-16.193-30.497a47.239 47.239 0 0 1-2.171-21.165s-15.693-11.832-23.539-27.164l17.028-33.331 7.513-4Z" fill="#000"/><path d="M854.07 410.656s53.757 3 58.932-12.665l-10.517-6.333-2.004 1.666-10.183-7.666-2.672 2.333c-3.839-2.999-8.18-6.166-10.851-8.499-4.508 9.499-14.357 22.498-22.705 31.164ZM704.321 478.815a104.166 104.166 0 0 1 6.511 28.331c1.503 16.666 1.336 29.165-5.843 42.33a16.823 16.823 0 0 1 1.741 6.863 16.817 16.817 0 0 1-1.24 6.969c0 9.166-1.169 45.83 6.511 71.661a24.174 24.174 0 0 0 8.848 10.833c6.678 4.999 7.346 5.166 10.518 6.332 3.171 1.167 9.015.5 9.849 7.667 0 0-1.335 2.833-8.848 4.666-7.512 1.833-13.188 0-15.526-1.667-2.337-1.666-4.674-3.833-9.349-3.999-4.674-.167-7.512.333-11.853-1.834 0 0-.668-10.832 2.504-17.498.501-10.499-1.502-22.332-7.846-36.83-8.347-6.333-9.85-20.165-9.182-25.998.668-5.833 3.506-14.499 11.686-22.998-1.836-19.999-6.845-17.332-10.851-45.33-2.004-14.666-2.338-26.665 2.003-29.831 4.341-3.166 20.367.333 20.367.333Z" fill="#000"/><path d="M695.471 399.154c7.346-3.333 18.197 1.667 19.533 9.5 3.339 17.832.835 24.998 2.337 34.997 11.185 9.166 9.182 18.165 9.349 26.664.167 8.5-.167 19.165.501 28.498a12.495 12.495 0 0 1-1.002 3.5c-.834 1.833-.668 6.332.835 10.499a10.181 10.181 0 0 1-3.339 2 17.174 17.174 0 0 0-5.843 4.833c-1.002 1.333-6.177-2.667-7.346-4l-.667-4.5a7.53 7.53 0 0 1-2.839 0 22.615 22.615 0 0 0 .835-8.999s1.67-2.833 7.68-6.499c-.334-18.666-2.838-17.166-9.349-30.665-2.504-4.833-1.336-12.499.167-17.498-2.838-4.167-9.015-4.833-12.855-14.499s-9.683-28.498 2.003-33.831Z" fill="#000"/><path d="M669.765 367.326c-.12.434-.176.883-.167 1.333-.501 3.5-1.502 12.666-2.838 15.832 0 0-14.357 9.333-18.698 14.499-4.34 5.166-1.502 27.498-1.502 27.498s.668 8.666 14.691 19.665a152.301 152.301 0 0 1 2.671 26.665v6.499l24.207 14.999a69.346 69.346 0 0 0 8.848-4 24.32 24.32 0 0 0 7.179-11.499s-1.336-17.998-1.836-23.165c-.501-5.166-.835-12.499-.835-12.499s4.007-6.832 4.34-9.166c.334-2.333.334-9.665.334-9.665a7.518 7.518 0 0 0 3.673-4.667c.501-3 2.337-13.999-5.008-18.165 0 0-11.519-8.333-16.027-11.832l-1.836-20.665-17.196-1.667Z" fill="#000"/><path d="M652.071 398.49a38.309 38.309 0 0 0-13.189 2.333c-14.023 5.333-11.352 25.498-11.519 38.331 0 1.666-.501 4.166-2.504 9.499-3.673 9.499-4.675 11.166-3.673 17.498 2.17 15.499 7.179 22.832 9.015 30.331a32.04 32.04 0 0 1 .167 4.167c.33.312.731.541 1.169.666.334 1.5-1.336 8.499-1.336 10.833 0 2.333 5.509 5.832 6.344 7.832s9.683 1.5 15.526-1c0 0 .668-4.666 1.336-6.999.522-1.783.692-3.651.5-5.5a33.17 33.17 0 0 1-4.841-4.666 23.213 23.213 0 0 0-6.177-4.666c-1.502-4.666-3.005-10.499-1.336-20.998 1.67-10.5 2.338-13.166 1.837-16.166a60.949 60.949 0 0 0-5.175-13.665c1.669-3.167 6.01-4.833 8.848-8.5 2.838-3.666 4.34-9.832 4.674-18.665a50.731 50.731 0 0 0 .334-20.665Z" fill="#000"/><path d="M664.256 478.649c-2.17 4.333-5.175 9.833-3.506 19.665-5.175 24.165-6.845 32.664-7.846 47.496a19.648 19.648 0 0 1-3.172 10.166c-1.336 1.833-7.68 8.166-11.52 14.499-3.839 6.333-4.507 9.499-4.674 10.499-.167 1-1.67 13.666 3.673 23.665 0 0 1.669 10.999 2.17 23.498a70.397 70.397 0 0 1-2.671 24.165 59.194 59.194 0 0 1-5.342 10.165 12.155 12.155 0 0 0-2.672 8.833 8.842 8.842 0 0 0 6.845 6.333c5.843 1.166 10.184.167 12.187-1.5 2.004-1.666 6.678-4.5 6.177-6.999-.501-2.5-1.168-2.833-1.335-4.167a8.15 8.15 0 0 0 1.502-1.666s-.835-12.666-3.84-16.832c0 0 1.169-29.331 4.508-40.33a55.11 55.11 0 0 0 8.347-18.665c.668-4.667-.167-19.832-.834-27.331 19.365-19.166 16.193-18.666 23.706-42.997 3.005-9.999 3.172-21.998 2.17-26.998-1.002-4.999-17.529-16.665-23.873-11.499ZM669.093 355.494c1.336-4.833 7.68-6.833 14.024-6.499 6.344.333 12.02 4.166 12.855 8.999.834 4.833 0 6.333.333 10.166a7.329 7.329 0 0 1-1.335 1.999c.477 1.279.703 2.637.668 4a66.854 66.854 0 0 0-5.843 16.332 38.446 38.446 0 0 1-8.348 0c-4.006-4-7.846-10.666-10.016-12.832a11.296 11.296 0 0 1 1.168-4.166c-4.507-3.667-5.175-12.166-3.506-17.999Z" fill="#000"/><path d="M680.449 365.158s-9.85-9.499-19.199-12.166c0 0 10.184 9.166 14.858 18.332 4.675 9.166 4.341-6.166 4.341-6.166Z" fill="#000"/></g><mask id="k" style="mask-type:alpha" maskUnits="userSpaceOnUse" x="0" y="0" width="1920" height="654"><path fill="#C4C4C4" d="M0 0h1920v654H0z"/></mask><g opacity=".7" mask="url(#k)"><path opacity=".07" transform="rotate(-30 -894 -180)" fill="url(#l)" d="M-894-180h160v1600h-160z"/><path opacity=".07" transform="rotate(-30 -709.438 -180)" fill="url(#m)" d="M-709.438-180h160v1600h-160z"/><path opacity=".07" transform="rotate(-30 -524.871 -180)" fill="url(#n)" d="M-524.871-180h160v1600h-160z"/><path opacity=".07" transform="rotate(-30 -340.305 -180)" fill="url(#o)" d="M-340.305-180h160v1600h-160z"/><path opacity=".07" transform="rotate(-30 -155.742 -180)" fill="url(#p)" d="M-155.742-180h160v1600h-160z"/><path opacity=".07" transform="rotate(-30 28.82 -180)" fill="url(#q)" d="M28.82-180h160v1600h-160z"/><path opacity=".07" transform="rotate(-30 213.387 -180)" fill="url(#r)" d="M213.387-180h160v1600h-160z"/><path opacity=".07" transform="rotate(-30 397.953 -180)" fill="url(#s)" d="M397.953-180h160v1600h-160z"/><path opacity=".07" transform="rotate(-30 582.516 -180)" fill="url(#t)" d="M582.516-180h160v1600h-160z"/><path opacity=".07" transform="rotate(-30 767.078 -180)" fill="url(#u)" d="M767.078-180h160v1600h-160z"/><path opacity=".07" transform="rotate(-30 951.645 -180)" fill="url(#v)" d="M951.645-180h160v1600h-160z"/><path opacity=".07" transform="rotate(-30 1136.21 -180)" fill="url(#w)" d="M1136.21-180h160v1600h-160z"/><path opacity=".07" transform="rotate(-30 1320.77 -180)" fill="url(#x)" d="M1320.77-180h160v1600h-160z"/><path opacity=".07" transform="rotate(-30 1505.34 -180)" fill="url(#y)" d="M1505.34-180h160v1600h-160z"/><path opacity=".07" transform="rotate(-30 1689.9 -180)" fill="url(#z)" d="M1689.9-180h160v1600h-160z"/><path opacity=".07" transform="rotate(-30 1874.47 -180)" fill="url(#A)" d="M1874.47-180h160v1600h-160z"/></g><path fill="url(#B)" d="M0 0h1920v654H0z"/><defs><linearGradient id="c" x1="960" y1="104" x2="960" y2="654" gradientUnits="userSpaceOnUse"><stop/><stop offset=".536" stop-opacity="0"/></linearGradient><linearGradient id="e" x1="1481.32" y1="274" x2="1481.32" y2="667.632" gradientUnits="userSpaceOnUse"><stop offset=".229"/><stop offset=".661" stop-opacity=".4"/></linearGradient><linearGradient id="f" x1="1236.71" y1="395.477" x2="1236.71" y2="596.473" gradientUnits="userSpaceOnUse"><stop offset=".082"/><stop offset=".704" stop-opacity=".4"/></linearGradient><linearGradient id="g" x1="584.158" y1="311.926" x2="584.158" y2="425.986" gradientUnits="userSpaceOnUse"><stop offset=".334" stop-opacity=".4"/><stop offset=".921"/></linearGradient><linearGradient id="h" x1="1017.44" y1="486.092" x2="1017.44" y2="596.808" gradientUnits="userSpaceOnUse"><stop offset=".5"/><stop offset="1" stop-opacity=".4"/></linearGradient><linearGradient id="i" x1="1072.65" y1="462.557" x2="1091.51" y2="543.73" gradientUnits="userSpaceOnUse"><stop offset=".5"/><stop offset="1" stop-opacity=".4"/></linearGradient><linearGradient id="j" x1="873.268" y1="400.988" x2="873.268" y2="583.473" gradientUnits="userSpaceOnUse"><stop offset=".197"/><stop offset=".844" stop-opacity=".4"/></linearGradient><linearGradient id="l" x1="-894" y1="532" x2="-814" y2="532" gradientUnits="userSpaceOnUse"><stop stop-color="#fff"/><stop offset="1" stop-color="#fff" stop-opacity="0"/></linearGradient><linearGradient id="m" x1="-709.437" y1="532" x2="-629.437" y2="532" gradientUnits="userSpaceOnUse"><stop stop-color="#fff"/><stop offset="1" stop-color="#fff" stop-opacity="0"/></linearGradient><linearGradient id="n" x1="-524.871" y1="532" x2="-444.871" y2="532" gradientUnits="userSpaceOnUse"><stop stop-color="#fff"/><stop offset="1" stop-color="#fff" stop-opacity="0"/></linearGradient><linearGradient id="o" x1="-340.305" y1="532" x2="-260.305" y2="532" gradientUnits="userSpaceOnUse"><stop stop-color="#fff"/><stop offset="1" stop-color="#fff" stop-opacity="0"/></linearGradient><linearGradient id="p" x1="-155.742" y1="532" x2="-75.742" y2="532" gradientUnits="userSpaceOnUse"><stop stop-color="#fff"/><stop offset="1" stop-color="#fff" stop-opacity="0"/></linearGradient><linearGradient id="q" x1="28.82" y1="532" x2="108.82" y2="532" gradientUnits="userSpaceOnUse"><stop stop-color="#fff"/><stop offset="1" stop-color="#fff" stop-opacity="0"/></linearGradient><linearGradient id="r" x1="213.387" y1="532" x2="293.387" y2="532" gradientUnits="userSpaceOnUse"><stop stop-color="#fff"/><stop offset="1" stop-color="#fff" stop-opacity="0"/></linearGradient><linearGradient id="s" x1="397.953" y1="532" x2="477.953" y2="532" gradientUnits="userSpaceOnUse"><stop stop-color="#fff"/><stop offset="1" stop-color="#fff" stop-opacity="0"/></linearGradient><linearGradient id="t" x1="582.516" y1="532" x2="662.516" y2="532" gradientUnits="userSpaceOnUse"><stop stop-color="#fff"/><stop offset="1" stop-color="#fff" stop-opacity="0"/></linearGradient><linearGradient id="u" x1="767.078" y1="532" x2="847.078" y2="532" gradientUnits="userSpaceOnUse"><stop stop-color="#fff"/><stop offset="1" stop-color="#fff" stop-opacity="0"/></linearGradient><linearGradient id="v" x1="951.645" y1="532" x2="1031.64" y2="532" gradientUnits="userSpaceOnUse"><stop stop-color="#fff"/><stop offset="1" stop-color="#fff" stop-opacity="0"/></linearGradient><linearGradient id="w" x1="1136.21" y1="532" x2="1216.21" y2="532" gradientUnits="userSpaceOnUse"><stop stop-color="#fff"/><stop offset="1" stop-color="#fff" stop-opacity="0"/></linearGradient><linearGradient id="x" x1="1320.77" y1="532" x2="1400.77" y2="532" gradientUnits="userSpaceOnUse"><stop stop-color="#fff"/><stop offset="1" stop-color="#fff" stop-opacity="0"/></linearGradient><linearGradient id="y" x1="1505.34" y1="532" x2="1585.34" y2="532" gradientUnits="userSpaceOnUse"><stop stop-color="#fff"/><stop offset="1" stop-color="#fff" stop-opacity="0"/></linearGradient><linearGradient id="z" x1="1689.9" y1="532" x2="1769.9" y2="532" gradientUnits="userSpaceOnUse"><stop stop-color="#fff"/><stop offset="1" stop-color="#fff" stop-opacity="0"/></linearGradient><linearGradient id="A" x1="1874.47" y1="532" x2="1954.47" y2="532" gradientUnits="userSpaceOnUse"><stop stop-color="#fff"/><stop offset="1" stop-color="#fff" stop-opacity="0"/></linearGradient><radialGradient id="a" cx="0" cy="0" r="1" gradientUnits="userSpaceOnUse" gradientTransform="matrix(-891 0 0 -523.81 960 654)"><stop offset=".175" stop-color="#FFE27D"/><stop offset=".593" stop-color="#64E3FF"/><stop offset=".767" stop-color="#9092FF"/></radialGradient><radialGradient id="b" cx="0" cy="0" r="1" gradientUnits="userSpaceOnUse" gradientTransform="matrix(0 -607.619 1033.56 0 960 654)"><stop offset=".268" stop-opacity="0"/><stop offset=".885"/></radialGradient><radialGradient id="B" cx="0" cy="0" r="1" gradientUnits="userSpaceOnUse" gradientTransform="matrix(0 327 -960 0 960 327)"><stop offset=".606" stop-opacity="0"/><stop offset=".954"/></radialGradient><clipPath id="d"><path fill="#fff" transform="translate(412 274)" d="M0 0h1097v380H0z"/></clipPath></defs></svg>